<svg aria-hidden="true" style="position: absolute; width: 0; height: 0; overflow: hidden;" version="1.1" xmlns="http://www.w3.org/2000/svg" xmlns:xlink="http://www.w3.org/1999/xlink">
<defs>
<symbol id="icon-logo" viewBox="0 0 32 32">
<path d="M20.351 4.632c0.14 0.14 0.14 0.281 0 0.421l-6.596 22.596c0 0.14-0.14 0.281-0.281 0.281-0.14 0.14-0.281 0.14-0.421 0l-1.123-0.281c-0.14 0-0.281-0.14-0.281-0.281-0.14-0.14-0.14-0.281 0-0.421l6.596-22.596c0-0.14 0.14-0.281 0.281-0.281 0.14-0.14 0.281-0.14 0.421 0l1.123 0.281c0 0.14 0.14 0.14 0.281 0.281zM10.105 8.842c0-0.14 0-0.281-0.14-0.421l-0.842-0.842c-0.14-0.14-0.281-0.14-0.421-0.14s-0.281 0-0.421 0.14l-8.14 8.14c-0.14 0.14-0.14 0.281-0.14 0.421s0 0.281 0.14 0.421l8.14 8.14c0.14 0.14 0.281 0.14 0.421 0.14s0.281 0 0.421-0.14l0.842-0.842c0.14-0.14 0.14-0.281 0.14-0.421s0-0.281-0.14-0.421l-6.877-6.877 6.877-6.877c0.14-0.14 0.14-0.281 0.14-0.421zM31.86 15.719l-8.14-8.14c-0.14-0.14-0.281-0.14-0.421-0.14s-0.281 0-0.421 0.14l-0.842 0.842c-0.14 0.14-0.14 0.281-0.14 0.421s0 0.281 0.14 0.421l6.877 6.877-6.877 6.877c-0.14 0.14-0.14 0.281-0.14 0.421s0 0.281 0.14 0.421l0.842 0.842c0.14 0.14 0.281 0.14 0.421 0.14s0.281 0 0.421-0.14l8.14-8.14c0.14-0.14 0.14-0.281 0.14-0.421s0-0.281-0.14-0.421z"></path>
</symbol>
</defs>
</svg>
